<svg xmlns="http://www.w3.org/2000/svg" width="32" height="32" viewBox="0 0 32 32" shape-rendering="crispEdges">
  <rect width="32" height="32" fill="none"/>
  <rect x="12" y="2" width="2" height="2" fill="#f5f2e9"/>
  <rect x="14" y="2" width="2" height="2" fill="#f5f2e9"/>
  <rect x="16" y="2" width="2" height="2" fill="#f5f2e9"/>
  <rect x="18" y="2" width="2" height="2" fill="#f5f2e9"/>
  <rect x="10" y="4" width="2" height="2" fill="#f5f2e9"/>
  <rect x="12" y="4" width="2" height="2" fill="#f5f2e9"/>
  <rect x="14" y="4" width="2" height="2" fill="#f5f2e9"/>
  <rect x="16" y="4" width="2" height="2" fill="#f5f2e9"/>
  <rect x="18" y="4" width="2" height="2" fill="#f5f2e9"/>
  <rect x="20" y="4" width="2" height="2" fill="#f5f2e9"/>
  <rect x="8" y="6" width="2" height="2" fill="#f5f2e9"/>
  <rect x="10" y="6" width="2" height="2" fill="#f5f2e9"/>
  <rect x="12" y="6" width="2" height="2" fill="#f5f2e9"/>
  <rect x="14" y="6" width="2" height="2" fill="#e8c94f"/>
  <rect x="16" y="6" width="2" height="2" fill="#e8c94f"/>
  <rect x="18" y="6" width="2" height="2" fill="#f5f2e9"/>
  <rect x="20" y="6" width="2" height="2" fill="#f5f2e9"/>
  <rect x="22" y="6" width="2" height="2" fill="#f5f2e9"/>
  <rect x="8" y="8" width="2" height="2" fill="#f5f2e9"/>
  <rect x="10" y="8" width="2" height="2" fill="#f5f2e9"/>
  <rect x="12" y="8" width="2" height="2" fill="#f5f2e9"/>
  <rect x="14" y="8" width="2" height="2" fill="#e8c94f"/>
  <rect x="16" y="8" width="2" height="2" fill="#e8c94f"/>
  <rect x="18" y="8" width="2" height="2" fill="#f5f2e9"/>
  <rect x="20" y="8" width="2" height="2" fill="#f5f2e9"/>
  <rect x="22" y="8" width="2" height="2" fill="#f5f2e9"/>
  <rect x="10" y="10" width="2" height="2" fill="#f5f2e9"/>
  <rect x="12" y="10" width="2" height="2" fill="#f5f2e9"/>
  <rect x="14" y="10" width="2" height="2" fill="#f5f2e9"/>
  <rect x="16" y="10" width="2" height="2" fill="#f5f2e9"/>
  <rect x="18" y="10" width="2" height="2" fill="#f5f2e9"/>
  <rect x="20" y="10" width="2" height="2" fill="#f5f2e9"/>
  <rect x="12" y="12" width="2" height="2" fill="#f5f2e9"/>
  <rect x="14" y="12" width="2" height="2" fill="#f5f2e9"/>
  <rect x="16" y="12" width="2" height="2" fill="#f5f2e9"/>
  <rect x="18" y="12" width="2" height="2" fill="#f5f2e9"/>
  <rect x="14" y="14" width="2" height="2" fill="#4f8a3c"/>
  <rect x="16" y="14" width="2" height="2" fill="#4f8a3c"/>
  <rect x="14" y="16" width="2" height="2" fill="#4f8a3c"/>
  <rect x="16" y="16" width="2" height="2" fill="#4f8a3c"/>
  <rect x="12" y="18" width="2" height="2" fill="#4f8a3c"/>
  <rect x="14" y="18" width="2" height="2" fill="#4f8a3c"/>
  <rect x="16" y="18" width="2" height="2" fill="#4f8a3c"/>
  <rect x="18" y="18" width="2" height="2" fill="#4f8a3c"/>
  <rect x="10" y="20" width="2" height="2" fill="#4f8a3c"/>
  <rect x="12" y="20" width="2" height="2" fill="#4f8a3c"/>
  <rect x="18" y="20" width="2" height="2" fill="#4f8a3c"/>
  <rect x="20" y="20" width="2" height="2" fill="#4f8a3c"/>
  <rect x="8" y="22" width="2" height="2" fill="#4f8a3c"/>
  <rect x="10" y="22" width="2" height="2" fill="#4f8a3c"/>
  <rect x="20" y="22" width="2" height="2" fill="#4f8a3c"/>
  <rect x="22" y="22" width="2" height="2" fill="#4f8a3c"/>
  <rect x="8" y="24" width="2" height="2" fill="#4f8a3c"/>
  <rect x="10" y="24" width="2" height="2" fill="#4f8a3c"/>
  <rect x="20" y="24" width="2" height="2" fill="#4f8a3c"/>
  <rect x="22" y="24" width="2" height="2" fill="#4f8a3c"/>
</svg>
