<svg xmlns="http://www.w3.org/2000/svg" width="32" height="32" viewBox="0 0 32 32" shape-rendering="crispEdges">
  <rect width="32" height="32" fill="none"/>
  <rect x="10" y="2" width="2" height="2" fill="#2f5a2a"/>
  <rect x="12" y="2" width="2" height="2" fill="#2f5a2a"/>
  <rect x="18" y="2" width="2" height="2" fill="#2f5a2a"/>
  <rect x="20" y="2" width="2" height="2" fill="#2f5a2a"/>
  <rect x="8" y="4" width="2" height="2" fill="#2f5a2a"/>
  <rect x="10" y="4" width="2" height="2" fill="#2f5a2a"/>
  <rect x="12" y="4" width="2" height="2" fill="#2f5a2a"/>
  <rect x="18" y="4" width="2" height="2" fill="#2f5a2a"/>
  <rect x="20" y="4" width="2" height="2" fill="#2f5a2a"/>
  <rect x="22" y="4" width="2" height="2" fill="#2f5a2a"/>
  <rect x="8" y="6" width="2" height="2" fill="#2f5a2a"/>
  <rect x="10" y="6" width="2" height="2" fill="#2f5a2a"/>
  <rect x="20" y="6" width="2" height="2" fill="#2f5a2a"/>
  <rect x="22" y="6" width="2" height="2" fill="#2f5a2a"/>
  <rect x="10" y="8" width="2" height="2" fill="#3b6f36"/>
  <rect x="12" y="8" width="2" height="2" fill="#3b6f36"/>
  <rect x="18" y="8" width="2" height="2" fill="#3b6f36"/>
  <rect x="20" y="8" width="2" height="2" fill="#3b6f36"/>
  <rect x="10" y="10" width="2" height="2" fill="#7b4aa6"/>
  <rect x="12" y="10" width="2" height="2" fill="#7b4aa6"/>
  <rect x="14" y="10" width="2" height="2" fill="#7b4aa6"/>
  <rect x="16" y="10" width="2" height="2" fill="#7b4aa6"/>
  <rect x="18" y="10" width="2" height="2" fill="#7b4aa6"/>
  <rect x="20" y="10" width="2" height="2" fill="#7b4aa6"/>
  <rect x="8" y="12" width="2" height="2" fill="#7b4aa6"/>
  <rect x="10" y="12" width="2" height="2" fill="#7b4aa6"/>
  <rect x="12" y="12" width="2" height="2" fill="#7b4aa6"/>
  <rect x="14" y="12" width="2" height="2" fill="#7b4aa6"/>
  <rect x="16" y="12" width="2" height="2" fill="#7b4aa6"/>
  <rect x="18" y="12" width="2" height="2" fill="#7b4aa6"/>
  <rect x="20" y="12" width="2" height="2" fill="#7b4aa6"/>
  <rect x="22" y="12" width="2" height="2" fill="#7b4aa6"/>
  <rect x="8" y="14" width="2" height="2" fill="#7b4aa6"/>
  <rect x="10" y="14" width="2" height="2" fill="#7b4aa6"/>
  <rect x="12" y="14" width="2" height="2" fill="#7b4aa6"/>
  <rect x="18" y="14" width="2" height="2" fill="#7b4aa6"/>
  <rect x="20" y="14" width="2" height="2" fill="#7b4aa6"/>
  <rect x="22" y="14" width="2" height="2" fill="#7b4aa6"/>
  <rect x="8" y="16" width="2" height="2" fill="#7b4aa6"/>
  <rect x="10" y="16" width="2" height="2" fill="#7b4aa6"/>
  <rect x="12" y="16" width="2" height="2" fill="#7b4aa6"/>
  <rect x="18" y="16" width="2" height="2" fill="#7b4aa6"/>
  <rect x="20" y="16" width="2" height="2" fill="#7b4aa6"/>
  <rect x="22" y="16" width="2" height="2" fill="#7b4aa6"/>
  <rect x="8" y="18" width="2" height="2" fill="#7b4aa6"/>
  <rect x="10" y="18" width="2" height="2" fill="#7b4aa6"/>
  <rect x="12" y="18" width="2" height="2" fill="#7b4aa6"/>
  <rect x="14" y="18" width="2" height="2" fill="#7b4aa6"/>
  <rect x="16" y="18" width="2" height="2" fill="#7b4aa6"/>
  <rect x="18" y="18" width="2" height="2" fill="#7b4aa6"/>
  <rect x="20" y="18" width="2" height="2" fill="#7b4aa6"/>
  <rect x="22" y="18" width="2" height="2" fill="#7b4aa6"/>
  <rect x="10" y="20" width="2" height="2" fill="#7b4aa6"/>
  <rect x="12" y="20" width="2" height="2" fill="#7b4aa6"/>
  <rect x="14" y="20" width="2" height="2" fill="#7b4aa6"/>
  <rect x="16" y="20" width="2" height="2" fill="#7b4aa6"/>
  <rect x="18" y="20" width="2" height="2" fill="#7b4aa6"/>
  <rect x="20" y="20" width="2" height="2" fill="#7b4aa6"/>
  <rect x="12" y="22" width="2" height="2" fill="#7b4aa6"/>
  <rect x="14" y="22" width="2" height="2" fill="#7b4aa6"/>
  <rect x="16" y="22" width="2" height="2" fill="#7b4aa6"/>
  <rect x="18" y="22" width="2" height="2" fill="#7b4aa6"/>
  <rect x="14" y="24" width="2" height="2" fill="#7b4aa6"/>
  <rect x="16" y="24" width="2" height="2" fill="#7b4aa6"/>
</svg>
